<svg xmlns="http://www.w3.org/2000/svg" version="1.1" xmlns:xlink="http://www.w3.org/1999/xlink" xmlns:svgjs="http://svgjs.com/svgjs" width="1000" height="100" overflow="visible" class=""><g class="overview-logo-color" opacity="1"><defs id="SvgjsDefs1031"><linearGradient id="SvgjsLinearGradient7YB1mDE5EZ" gradientUnits="userSpaceOnUse" x1="6.902782440185559" y1="93.0974063873291" x2="93.09759521484376" y2="6.902593612670893"><stop id="SvgjsStop1034" stop-color="#9bcbe8" offset="0.05"></stop><stop id="SvgjsStop1035" stop-color="#3394d1" offset="0.95"></stop></linearGradient></defs><g id="SvgjsG1032" transform="scale(1.2243679852781815)" opacity="1"><g id="SvgjsG1036" class="Kc3-nPufL" transform="translate(-3.1910784549920037, -5.619067083724046) scale(0.6381677329892916)" light-content="false" non-strokable="false" fill="url(#SvgjsLinearGradient7YB1mDE5EZ)"><path d="M92.726 17.19c-3.03-5.25-8.46-8.385-14.523-8.385H21.797c-6.063 0-11.492 3.135-14.523 8.385s-3.032 11.52 0 16.77l28.202 48.85c3.032 5.25 8.461 8.385 14.524 8.385 6.063 0 11.493-3.135 14.523-8.385l28.203-48.85c3.032-5.25 3.032-11.519 0-16.77zm-82.438 1.74c2.402-4.16 6.705-6.645 11.509-6.645h31.046c4.398 0 8.195 2.207 10.417 6.055 2.333 4.04 2.32 9.08-.016 13.128l-.6 1H36.153l-.02.033-2.13-.033c-5.736 0-10.866 2.954-13.722 7.901a16.149 16.149 0 0 0-1.995 5.705l-7.998-13.853c-2.403-4.162-2.403-9.13 0-13.29zm39.604 35.593L39.167 35.948h21.449L49.892 54.523zM61.509 81.07c-2.402 4.16-6.704 6.645-11.509 6.645-4.804 0-9.107-2.484-11.51-6.645L23.336 54.82c-2.311-4.001-2.326-8.753-.041-12.71 2.227-3.859 6.23-6.162 10.68-6.162l1.184.019 13.212 22.882 1.058 1.905c2.904 5.029 8.104 8.031 13.91 8.031a16.18 16.18 0 0 0 5.902-1.107L61.509 81.07zm28.203-48.85l-15.47 26.797-.006-.003c-2.274 3.94-6.348 6.291-10.896 6.291s-8.623-2.352-10.882-6.267l-.566-1.019 13.245-22.941 1.106-1.846c2.972-5.145 2.983-11.518.031-16.632a15.778 15.778 0 0 0-3.654-4.315h15.583c4.805 0 9.108 2.484 11.51 6.646 2.402 4.16 2.402 9.129 0 13.29z"></path></g><g id="SvgjsG1037" class="text" transform="translate(149.1891390199314, 43.77637593595827) scale(1)" light-content="false" fill="#3394d1"><path d="M-59.19 -1.51C-56.79 -0.22 -53.96 0.43 -50.7 0.43C-47.49 0.43 -44.68 -0.22 -42.29 -1.51C-39.89 -2.8 -38.03 -4.79 -36.69 -7.46C-35.35 -10.13 -34.68 -13.47 -34.68 -17.49C-34.68 -21.5 -35.34 -24.85 -36.66 -27.52C-37.99 -30.19 -39.85 -32.17 -42.24 -33.46C-44.64 -34.75 -47.46 -35.4 -50.7 -35.4C-53.92 -35.4 -56.72 -34.75 -59.13 -33.46C-61.53 -32.17 -63.4 -30.19 -64.74 -27.52C-66.08 -24.85 -66.75 -21.5 -66.75 -17.49C-66.75 -13.47 -66.09 -10.13 -64.76 -7.46C-63.44 -4.79 -61.58 -2.8 -59.19 -1.51ZM-41.19 -5.87C-43.48 -3.41 -46.65 -2.17 -50.7 -2.17C-54.77 -2.17 -57.94 -3.41 -60.23 -5.9C-62.51 -8.38 -63.65 -12.28 -63.65 -17.61C-63.65 -22.82 -62.51 -26.66 -60.21 -29.11C-57.92 -31.57 -54.75 -32.8 -50.7 -32.8C-46.65 -32.8 -43.48 -31.56 -41.19 -29.07C-38.9 -26.58 -37.75 -22.68 -37.75 -17.37C-37.75 -12.17 -38.9 -8.34 -41.19 -5.87Z M-26.79 -34.34L-26.79 0L-23.81 0L-23.81 -12.1C-21.9 -11.91 -19.93 -11.82 -17.88 -11.82C-12.52 -11.82 -8.58 -12.82 -6.05 -14.82C-3.52 -16.82 -2.26 -19.76 -2.26 -23.66C-2.26 -27.64 -3.5 -30.58 -5.98 -32.48C-8.46 -34.38 -12.13 -35.33 -16.98 -35.33C-18.73 -35.33 -20.37 -35.25 -21.91 -35.09C-23.44 -34.94 -25.07 -34.68 -26.79 -34.34ZM-10.58 -15.27C-12.43 -14.57 -14.87 -14.23 -17.88 -14.23C-19.88 -14.23 -21.86 -14.36 -23.81 -14.63L-23.81 -32.3C-21.67 -32.7 -19.33 -32.9 -16.81 -32.9C-12.92 -32.9 -10.02 -32.15 -8.11 -30.65C-6.19 -29.15 -5.23 -26.81 -5.23 -23.61C-5.23 -21.5 -5.66 -19.75 -6.51 -18.37C-7.36 -17 -8.72 -15.96 -10.58 -15.27Z M7.93 -2.5L7.93 -16.71L26.13 -16.71L26.13 -19.21L7.93 -19.21L7.93 -32.47L28.49 -32.47L28.49 -34.98L4.97 -34.98L4.97 0L28.72 0L28.72 -2.5Z M62.16 -34.98L62.16 -4.18L39.12 -34.98L36.03 -34.98L36.03 0L38.86 0L38.86 -30.79L61.9 0L65 0L65 -34.98Z"></path></g><g id="SvgjsG1038" class="text" transform="translate(342.3846881303483, 43.79092739236776) scale(1)" light-content="false" fill="#404040"><path d="M-93.43 -15.4C-94.59 -16.74 -96.16 -17.62 -98.14 -18.03C-96.46 -18.5 -95.11 -19.4 -94.11 -20.73C-93.11 -22.05 -92.61 -23.61 -92.61 -25.4C-92.61 -28.71 -93.93 -31.21 -96.56 -32.9C-99.19 -34.58 -103.39 -35.42 -109.16 -35.42C-111.24 -35.42 -113.47 -35.28 -115.87 -35C-118.26 -34.72 -120.4 -34.35 -122.29 -33.91L-122.29 -0.31C-120.67 -0.09 -118.79 0.09 -116.65 0.24C-114.5 0.38 -112.63 0.45 -111.02 0.45C-106.25 0.45 -102.44 0.03 -99.6 -0.8C-96.75 -1.64 -94.72 -2.83 -93.51 -4.37C-92.3 -5.92 -91.69 -7.81 -91.69 -10.07C-91.69 -12.27 -92.27 -14.05 -93.43 -15.4ZM-112.65 -28.26C-111.11 -28.56 -109.57 -28.71 -108.04 -28.71C-106.5 -28.71 -105.28 -28.58 -104.37 -28.31C-103.46 -28.04 -102.81 -27.64 -102.41 -27.11C-102.01 -26.57 -101.81 -25.87 -101.81 -25C-101.81 -23.74 -102.25 -22.8 -103.13 -22.19C-104.01 -21.58 -105.46 -21.27 -107.48 -21.27L-112.65 -21.27ZM-103.66 -6.72C-104.79 -6.42 -106.34 -6.26 -108.33 -6.26C-110.03 -6.26 -111.47 -6.33 -112.65 -6.48L-112.65 -14.44L-106.63 -14.44C-105.13 -14.44 -103.94 -14.3 -103.07 -14.01C-102.2 -13.73 -101.57 -13.29 -101.18 -12.69C-100.79 -12.09 -100.6 -11.31 -100.6 -10.35C-100.6 -9.42 -100.83 -8.66 -101.29 -8.07C-101.74 -7.48 -102.53 -7.03 -103.66 -6.72Z M-59.91 0L-50.22 0L-62.88 -34.98L-77.13 -34.98L-89.78 0L-80.21 0L-77.28 -8.53L-62.84 -8.53ZM-74.75 -15.86L-70.04 -29.56L-65.34 -15.86Z M-20.44 -34.98L-20.44 -13.42L-36.49 -34.98L-46.39 -34.98L-46.39 0L-37.08 0L-37.08 -21.55L-21.03 0L-11.13 0L-11.13 -34.98Z M18.27 0L29.02 0L16.14 -18.1L27.86 -34.98L17.46 -34.98L8.48 -22.05L5.46 -22.05L5.46 -34.98L-4.42 -34.98L-4.42 0L5.46 0L5.46 -13.68L8.51 -13.68Z M31.38 0L41.26 0L41.26 -34.98L31.38 -34.98Z M73.94 -34.98L73.94 -13.42L57.9 -34.98L48 -34.98L48 0L57.31 0L57.31 -21.55L73.35 0L83.26 0L83.26 -34.98Z M122.18 -17.01L112.98 -17.01L112.98 -7.44C112.62 -7.43 112.08 -7.42 111.35 -7.42C107.18 -7.42 104.08 -8.26 102.07 -9.93C100.05 -11.6 99.04 -14.01 99.04 -17.18C99.04 -19.51 99.52 -21.43 100.47 -22.95C101.42 -24.46 102.93 -25.59 104.98 -26.35C107.04 -27.11 109.71 -27.49 112.98 -27.51C115.79 -27.51 118.42 -27.26 120.88 -26.75L120.88 -34.62C119.52 -34.89 118.09 -35.09 116.59 -35.24C115.08 -35.38 113.64 -35.45 112.25 -35.45C107.12 -35.45 102.79 -34.73 99.29 -33.3C95.78 -31.86 93.15 -29.79 91.4 -27.08C89.64 -24.37 88.77 -21.12 88.78 -17.32C88.78 -11.46 90.7 -7.03 94.53 -4.04C98.36 -1.05 104.15 0.45 111.92 0.45C115.02 0.45 118.44 0.14 122.18 -0.47Z"></path></g></g></g></svg>